{
  "source": "C:\\Users\\Peter\\Desktop\\stuff\\MIUN\\quantitative_research\\video_compression\\videos\\BVI-HD\\RockWave_1920x1080_30fps.mp4",
  "output": "C:\\Users\\Peter\\Desktop\\stuff\\MIUN\\quantitative_research\\video_compression\\compressed_videos\\BVI-HD\\h264\\2\\RockWave_1920x1080_30fps_h264.mp4",
  "codec": "h264",
  "ok": "Input #0, mov,mp4,m4a,3gp,3g2,mj2, from 'C:\\Users\\Peter\\Desktop\\stuff\\MIUN\\quantitative_research\\video_compression\\videos\\BVI-HD\\RockWave_1920x1080_30fps.mp4':\n  Metadata:\n    major_brand     : isom\n    minor_version   : 512\n    compatible_brands: isomiso2avc1mp41\n    encoder         : Lavf54.28.101\n  Duration: 00:00:05.00, start: 0.000000, bitrate: 303557 kb/s\n  Stream #0:0[0x1](und): Video: h264 (High 4:4:4 Predictive) (avc1 / 0x31637661), yuv420p(progressive), 1920x1080, 303553 kb/s, 30 fps, 30 tbr, 30 tbn (default)\n    Metadata:\n      handler_name    : VideoHandler\n      vendor_id       : [0][0][0][0]\n[out#0/mp4 @ 000001f3641b9a00] Codec AVOption b:a (set bitrate (in bits/s)) has not been used for any stream. The most likely reason is either wrong type (e.g. a video option with no video streams) or that it is a private option of some decoder which was not actually used for any stream.\nStream mapping:\n  Stream #0:0 -> #0:0 (h264 (native) -> h264 (libx264))\nPress [q] to stop, [?] for help\n[libx264 @ 000001f3650575c0] using cpu capabilities: MMX2 SSE2Fast SSSE3 SSE4.2 AVX FMA3 BMI2 AVX2\n[libx264 @ 000001f3650575c0] profile High, level 5.0, 4:2:0, 8-bit\n[libx264 @ 000001f3650575c0] 264 - core 165 r3222 b35605a - H.264/MPEG-4 AVC codec - Copyleft 2003-2025 - http://www.videolan.org/x264.html - options: cabac=1 ref=5 deblock=1:0:0 analyse=0x3:0x113 me=hex subme=8 psy=1 psy_rd=1.00:0.00 mixed_ref=1 me_range=16 chroma_me=1 trellis=2 8x8dct=1 cqm=0 deadzone=21,11 fast_pskip=1 chroma_qp_offset=-2 threads=18 lookahead_threads=3 sliced_threads=0 nr=0 decimate=1 interlaced=0 bluray_compat=0 constrained_intra=0 bframes=3 b_pyramid=2 b_adapt=1 b_bias=0 direct=3 weightb=1 open_gop=0 weightp=2 keyint=250 keyint_min=25 scenecut=40 intra_refresh=0 rc_lookahead=50 rc=cbr mbtree=1 bitrate=2000 ratetol=1.0 qcomp=0.60 qpmin=0 qpmax=69 qpstep=4 vbv_maxrate=2000 vbv_bufsize=2000 nal_hrd=none filler=0 ip_ratio=1.40 aq=1:1.00\nOutput #0, mp4, to 'C:\\Users\\Peter\\Desktop\\stuff\\MIUN\\quantitative_research\\video_compression\\compressed_videos\\BVI-HD\\h264\\2\\RockWave_1920x1080_30fps_h264.mp4':\n  Metadata:\n    major_brand     : isom\n    minor_version   : 512\n    compatible_brands: isomiso2avc1mp41\n    encoder         : Lavf62.3.100\n  Stream #0:0(und): Video: h264 (avc1 / 0x31637661), yuv420p(tv, progressive), 1920x1080, q=2-31, 2000 kb/s, 30 fps, 15360 tbn (default)\n    Metadata:\n      encoder         : Lavc62.11.100 libx264\n      handler_name    : VideoHandler\n      vendor_id       : [0][0][0][0]\n    Side data:\n      cpb: bitrate max/min/avg: 2000000/0/2000000 buffer size: 2000000 vbv_delay: N/A\nframe=    0 fps=0.0 q=0.0 size=       0KiB time=N/A bitrate=N/A speed=N/A elapsed=0:00:00.50    \nframe=    0 fps=0.0 q=0.0 size=       0KiB time=N/A bitrate=N/A speed=N/A elapsed=0:00:01.03    \nframe=    0 fps=0.0 q=0.0 size=       0KiB time=N/A bitrate=N/A speed=N/A elapsed=0:00:01.55    \nframe=    0 fps=0.0 q=0.0 size=       0KiB time=N/A bitrate=N/A speed=N/A elapsed=0:00:02.06    \nframe=   12 fps=4.6 q=47.0 size=       0KiB time=00:00:00.33 bitrate=   1.2kbits/s speed=0.128x elapsed=0:00:02.60    \nframe=   28 fps=9.0 q=46.0 size=       0KiB time=00:00:00.86 bitrate=   0.4kbits/s speed=0.278x elapsed=0:00:03.12    \nframe=   44 fps= 12 q=46.0 size=     256KiB time=00:00:01.40 bitrate=1498.2kbits/s speed=0.384x elapsed=0:00:03.65    \nframe=   64 fps= 15 q=47.0 size=     256KiB time=00:00:02.06 bitrate=1014.9kbits/s speed=0.495x elapsed=0:00:04.17    \nframe=   89 fps= 19 q=47.0 size=     512KiB time=00:00:02.90 bitrate=1446.4kbits/s speed=0.618x elapsed=0:00:04.68    \nframe=  123 fps= 24 q=44.0 size=     768KiB time=00:00:04.00 bitrate=1573.0kbits/s speed=0.768x elapsed=0:00:05.21    \n[mp4 @ 000001f3641c1440] Starting second pass: moving the moov atom to the beginning of the file\n[out#0/mp4 @ 000001f3641b9a00] video:1121KiB audio:0KiB subtitle:0KiB other streams:0KiB global headers:0KiB muxing overhead: 0.232750%\nframe=  150 fps= 27 q=-1.0 Lsize=    1123KiB time=00:00:04.93 bitrate=1865.3kbits/s speed=0.899x elapsed=0:00:05.48    \n[libx264 @ 000001f3650575c0] frame I:2     Avg QP:43.65  size: 32952\n[libx264 @ 000001f3650575c0] frame P:38    Avg QP:46.56  size: 13383\n[libx264 @ 000001f3650575c0] frame B:110   Avg QP:47.68  size:  5203\n[libx264 @ 000001f3650575c0] consecutive B-frames:  2.0%  0.0%  2.0% 96.0%\n[libx264 @ 000001f3650575c0] mb I  I16..4: 32.3% 64.0%  3.8%\n[libx264 @ 000001f3650575c0] mb P  I16..4:  4.9%  5.4%  0.1%  P16..4: 32.6%  3.6%  4.3%  0.0%  0.0%    skip:49.2%\n[libx264 @ 000001f3650575c0] mb B  I16..4:  0.0%  0.1%  0.0%  B16..8: 29.9%  1.4%  0.1%  direct: 1.0%  skip:67.4%  L0:43.3% L1:55.9% BI: 0.8%\n[libx264 @ 000001f3650575c0] 8x8 transform intra:57.1% inter:85.8%\n[libx264 @ 000001f3650575c0] direct mvs  spatial:90.9% temporal:9.1%\n[libx264 @ 000001f3650575c0] coded y,uvDC,uvAC intra: 27.0% 10.9% 0.0% inter: 5.7% 0.4% 0.0%\n[libx264 @ 000001f3650575c0] i16 v,h,dc,p: 34% 32% 13% 21%\n[libx264 @ 000001f3650575c0] i8 v,h,dc,ddl,ddr,vr,hd,vl,hu:  5%  4% 23% 11% 15%  9% 14%  8% 12%\n[libx264 @ 000001f3650575c0] i4 v,h,dc,ddl,ddr,vr,hd,vl,hu:  3%  5% 12% 12% 14%  9% 15%  8% 21%\n[libx264 @ 000001f3650575c0] i8c dc,h,v,p: 95%  4%  1%  0%\n[libx264 @ 000001f3650575c0] Weighted P-Frames: Y:7.9% UV:0.0%\n[libx264 @ 000001f3650575c0] ref P L0: 51.7%  5.0% 21.5%  9.9% 10.9%  0.9%\n[libx264 @ 000001f3650575c0] ref B L0: 79.6% 13.1%  5.1%  2.1%\n[libx264 @ 000001f3650575c0] ref B L1: 94.1%  5.9%\n[libx264 @ 000001f3650575c0] kb/s:1834.92\n",
  "seconds": 5.804556131362915,
  "probe_out": {}
}